# 3ds Max Wavefront OBJ Exporter v0.97b - (c)2007 guruware
# File Created: 15.01.2010 19:58:08

#
# object GeoSphere02
#

v  0.4426 7.9103 -22.0015
v  -5.2813 3.5376 -17.8428
v  -2.8707 14.0353 -11.8042
v  2.6289 3.5376 -15.2726
v  -1.7438 -3.5376 -15.2726
v  -4.9184 3.3133 -5.5020
v  -5.2813 3.5376 -26.1602
v  -10.2795 14.0353 -22.0015
v  -6.6326 -3.5376 -22.0015
v  -16.9061 3.3133 -22.0015
v  -1.7438 -3.5376 -28.7304
v  -13.5928 -3.3133 -32.1988
v  -8.2317 -14.0353 -15.6992
v  0.4426 -7.9103 -22.0015
v  -8.2317 -14.0353 -28.3038
v  -13.5928 -3.3133 -11.8042
v  2.6289 3.5376 -28.7304
v  -4.9184 3.3133 -38.5011
v  6.1665 -3.5376 -26.1602
v  3.7559 -14.0353 -32.1988
v  -2.8707 14.0353 -32.1988
v  7.5177 3.5376 -22.0015
v  14.4779 3.3133 -32.1988
v  6.1665 -3.5376 -17.8428
v  17.7912 -3.3133 -22.0015
v  14.4779 3.3133 -11.8042
v  9.1169 14.0353 -15.6992
v  9.1169 14.0353 -28.3038
v  5.8036 -3.3133 -5.5020
v  3.7559 -14.0353 -11.8042
v  11.1646 -14.0353 -22.0015
v  5.8036 -3.3133 -38.5011
# 32 vertices

vn -0.7245 0.4611 -0.5124
vn -0.2790 -0.4299 0.8587
vn 0.8873 0.4611 0.0113
vn -0.8969 -0.4418 0.0183
vn 0.7148 -0.4418 0.5420
vn -0.0060 0.9998 0.0183
vn 0.2634 0.4611 -0.8474
vn -0.9029 -0.4299 0.0000
vn 0.2634 0.4611 0.8474
vn -0.2946 -0.4418 -0.8474
vn -0.2946 -0.4418 0.8474
vn -0.0193 0.9998 0.0000
vn 0.2597 0.4418 -0.8587
vn -0.0156 -0.9998 -0.0113
vn -0.7364 0.4418 0.5124
vn -0.7305 0.4299 0.5307
vn -0.2850 -0.4611 -0.8404
vn 0.7112 -0.4611 0.5307
vn 0.7112 -0.4611 -0.5307
vn -0.2850 -0.4611 0.8404
vn -0.7305 0.4299 -0.5307
vn -0.7364 0.4418 -0.5124
vn -0.0156 -0.9998 0.0113
vn 0.2597 0.4418 0.8587
vn -0.0060 0.9998 -0.0183
vn 0.7148 -0.4418 -0.5420
vn -0.8969 -0.4418 -0.0183
vn 0.2790 0.4299 -0.8587
vn -0.8873 -0.4611 -0.0113
vn 0.7245 -0.4611 0.5124
vn 0.8873 0.4611 -0.0113
vn -0.2790 -0.4299 -0.8587
vn -0.7245 0.4611 0.5124
vn 0.0156 0.9998 -0.0113
vn 0.7364 -0.4418 0.5124
vn -0.2597 -0.4418 -0.8587
vn 0.2946 0.4418 0.8474
vn 0.0193 -0.9998 -0.0000
vn 0.2946 0.4418 -0.8474
vn 0.0156 0.9998 0.0113
vn -0.2597 -0.4418 0.8587
vn 0.7364 -0.4418 -0.5124
vn 0.2850 0.4611 -0.8404
vn -0.7112 0.4611 0.5307
vn 0.7305 -0.4299 0.5307
vn 0.2850 0.4611 0.8404
vn 0.7305 -0.4299 -0.5307
vn -0.7112 0.4611 -0.5307
vn -0.7148 0.4418 0.5420
vn 0.0060 -0.9998 0.0183
vn 0.8969 0.4418 0.0183
vn 0.7245 -0.4611 -0.5124
vn 0.2790 0.4299 0.8587
vn -0.8873 -0.4611 0.0113
vn -0.2634 -0.4611 -0.8474
vn 0.9029 0.4299 -0.0000
vn -0.2634 -0.4611 0.8474
vn 0.8969 0.4418 -0.0183
vn 0.0060 -0.9998 -0.0183
vn -0.7148 0.4418 -0.5420
# 60 vertex normals

vt 0.2000 1.0000 69.5330
vt 0.1000 0.6476 69.5330
vt 0.3000 0.6476 69.5330
vt 0.2000 0.3524 69.5330
vt 0.0000 1.0000 69.5330
vt -0.1000 0.6476 69.5330
vt 0.0000 0.3524 69.5330
vt -0.2000 0.3524 69.5330
vt 0.1000 0.0000 69.5330
vt -0.1000 0.0000 69.5330
vt 0.9000 0.6476 69.5330
vt 0.7000 0.6476 69.5330
vt 0.8000 0.3524 69.5330
vt 0.6000 0.3524 69.5330
vt 0.7000 0.0000 69.5330
vt 0.8000 1.0000 69.5330
vt 0.5000 0.6476 69.5330
vt 0.4000 0.3524 69.5330
vt 0.4000 1.0000 69.5330
vt 0.6000 1.0000 69.5330
vt 0.3000 0.0000 69.5330
vt 0.5000 0.0000 69.5330
# 22 texture coords

g GeoSphere02
s off
f 1/1/1 2/2/1 3/2/1 
f 2/2/2 4/3/2 3/3/2 
f 4/3/3 1/1/3 3/1/3 
f 2/2/4 5/4/4 6/4/4 
f 5/4/5 4/3/5 6/3/5 
f 4/3/6 2/2/6 6/2/6 
f 1/5/7 7/6/7 8/6/7 
f 7/6/8 2/2/8 8/2/8 
f 2/2/9 1/5/9 8/5/9 
f 7/6/10 9/7/10 10/7/10 
f 9/7/11 2/2/11 10/2/11 
f 2/2/12 7/6/12 10/6/12 
f 7/6/13 11/8/13 12/8/13 
f 11/8/14 9/7/14 12/7/14 
f 9/7/15 7/6/15 12/6/15 
f 5/4/16 9/7/16 13/7/16 
f 9/7/17 14/9/17 13/9/17 
f 14/9/18 5/4/18 13/4/18 
f 11/8/19 14/10/19 15/10/19 
f 14/10/20 9/7/20 15/7/20 
f 9/7/21 11/8/21 15/8/21 
f 2/2/22 9/7/22 16/7/22 
f 9/7/23 5/4/23 16/4/23 
f 5/4/24 2/2/24 16/2/24 
f 7/11/25 17/12/25 18/12/25 
f 17/12/26 11/13/26 18/13/26 
f 11/13/27 7/11/27 18/11/27 
f 11/13/28 19/14/28 20/14/28 
f 14/15/29 11/13/29 20/13/29 
f 19/14/30 14/15/30 20/15/30 
f 1/16/31 17/12/31 21/12/31 
f 17/12/32 7/11/32 21/11/32 
f 7/11/33 1/16/33 21/16/33 
f 17/12/34 22/17/34 23/17/34 
f 22/17/35 19/14/35 23/14/35 
f 19/14/36 17/12/36 23/12/36 
f 22/17/37 24/18/37 25/18/37 
f 24/18/38 19/14/38 25/14/38 
f 19/14/39 22/17/39 25/17/39 
f 22/17/40 4/3/40 26/3/40 
f 4/3/41 24/18/41 26/18/41 
f 24/18/42 22/17/42 26/17/42 
f 22/17/43 1/19/43 27/19/43 
f 1/19/44 4/3/44 27/3/44 
f 4/3/45 22/17/45 27/17/45 
f 1/20/46 22/17/46 28/17/46 
f 22/17/47 17/12/47 28/12/47 
f 17/12/48 1/20/48 28/20/48 
f 4/3/49 5/4/49 29/4/49 
f 5/4/50 24/18/50 29/18/50 
f 24/18/51 4/3/51 29/3/51 
f 14/21/52 24/18/52 30/18/52 
f 24/18/53 5/4/53 30/4/53 
f 5/4/54 14/21/54 30/21/54 
f 14/22/55 19/14/55 31/14/55 
f 19/14/56 24/18/56 31/18/56 
f 24/18/57 14/22/57 31/22/57 
f 17/12/58 19/14/58 32/14/58 
f 19/14/59 11/13/59 32/13/59 
f 11/13/60 17/12/60 32/12/60 
# 0 polygons - 60 triangles

