# This file uses centimeters as units for non-parametric coordinates.

mtllib star3D.mtl
g default
v -0.000007 0.000000 -0.325953
v 0.500000 -0.187785 -0.000017
v 0.809017 -1.138842 -0.000027
v 0.309017 0.400000 -0.000010
v 1.309017 0.400000 -0.000044
v -0.309017 0.400000 0.000010
v 0.000000 1.351057 0.000000
v -0.500000 -0.187785 0.000017
v -1.309017 0.400000 0.000044
v 0.000007 0.000000 0.325953
v -0.809017 -1.138842 0.000027
v 0.000000 -0.551056 0.000000
vn 0.585245 0.190166 -0.788241
vn 0.585245 0.190166 -0.788241
vn 0.585245 0.190166 -0.788241
vn -0.000026 0.631705 -0.775209
vn -0.000026 0.631705 -0.775209
vn -0.000026 0.631705 -0.775209
vn -0.585292 0.190164 -0.788207
vn -0.585292 0.190164 -0.788207
vn -0.585292 0.190164 -0.788207
vn -0.346944 -0.477491 -0.807238
vn -0.346944 -0.477491 -0.807238
vn -0.346944 -0.477491 -0.807238
vn 0.585292 0.190164 0.788207
vn 0.585292 0.190164 0.788207
vn 0.585292 0.190164 0.788207
vn 0.000026 0.631705 0.775209
vn 0.000026 0.631705 0.775209
vn 0.000026 0.631705 0.775209
vn -0.585246 0.190166 0.788241
vn -0.585246 0.190166 0.788241
vn -0.585246 0.190166 0.788241
vn -0.346892 -0.477494 0.807258
vn -0.346892 -0.477494 0.807258
vn -0.346892 -0.477494 0.807258
vn -0.585292 0.190164 -0.788207
vn -0.585292 0.190164 -0.788207
vn -0.585292 0.190164 -0.788207
vn -0.585245 0.190166 0.788241
vn -0.585245 0.190166 0.788241
vn -0.585245 0.190166 0.788241
vn 0.346945 -0.477490 0.807237
vn 0.346945 -0.477490 0.807237
vn 0.346945 -0.477490 0.807237
vn 0.346893 -0.477494 -0.807258
vn 0.346893 -0.477494 -0.807258
vn 0.346893 -0.477494 -0.807258
vn -0.346893 -0.477494 0.807258
vn -0.346893 -0.477494 0.807258
vn -0.346893 -0.477494 0.807258
vn 0.000026 0.631705 0.775209
vn 0.000026 0.631705 0.775209
vn 0.000026 0.631705 0.775209
vn 0.585292 0.190164 0.788207
vn 0.585292 0.190164 0.788207
vn 0.585292 0.190164 0.788207
vn 0.346944 -0.477491 0.807238
vn 0.346944 -0.477491 0.807238
vn 0.346944 -0.477491 0.807238
vn -0.346945 -0.477490 -0.807237
vn -0.346945 -0.477490 -0.807237
vn -0.346945 -0.477490 -0.807237
vn -0.000026 0.631705 -0.775209
vn -0.000026 0.631705 -0.775209
vn -0.000026 0.631705 -0.775209
vn 0.585246 0.190166 -0.788241
vn 0.585246 0.190166 -0.788241
vn 0.585246 0.190166 -0.788241
vn 0.346892 -0.477494 -0.807258
vn 0.346892 -0.477494 -0.807258
vn 0.346892 -0.477494 -0.807258
s off
g D_STAR
usemtl yellowbrt
f 1//1 2//2 3//3
f 1//4 4//5 5//6
f 1//7 6//8 7//9
f 1//10 8//11 9//12
f 3//13 2//14 10//15
f 5//16 4//17 10//18
f 7//19 6//20 10//21
f 9//22 8//23 10//24
f 1//25 11//26 8//27
f 8//28 11//29 10//30
f 12//31 10//32 11//33
f 1//34 12//35 11//36
f 3//37 10//38 12//39
f 6//40 9//41 10//42
f 4//43 7//44 10//45
f 2//46 5//47 10//48
f 1//49 3//50 12//51
f 1//52 9//53 6//54
f 1//55 7//56 4//57
f 1//58 5//59 2//60
